<svg xmlns="http://www.w3.org/2000/svg" width="160" height="160" viewBox="0 0 160 160"><defs><style>.a{fill:none;}.b{fill:#b41e28;}.c{fill:#f0f0f0;}.d{fill:#d21e28;}.e{fill:#fff;}</style></defs><rect class="a" width="160" height="160"/><g transform="translate(41.333 26.667)"><g transform="translate(0 0)"><path class="b" d="M87,545.071A38.893,38.893,0,1,1,12.459,522.95a78,78,0,0,0,22.268,16.359v12.75a4.864,4.864,0,0,0,7.181,4.27c.069-.037.138-.079.2-.115l16.74-9.66A78.4,78.4,0,0,0,87,545.071Z" transform="translate(-10.54 -466.954)"/><path class="c" d="M256.253,680.065l-16.74,9.66c-.064.037-.133.078-.2.115a4.812,4.812,0,0,1-2.318.587,4.861,4.861,0,0,1-4.863-4.857V672.82A77.158,77.158,0,0,0,256.253,680.065Z" transform="translate(-207.943 -600.465)"/><path class="d" d="M103.992,77.987a39.082,39.082,0,0,1-1.317,10.059,78.085,78.085,0,0,1-18.122,2.126A78.619,78.619,0,0,1,74.52,89.53l12.585-7.268.009,0c.1-.05.188-.106.281-.165a4.866,4.866,0,0,0-.041-8.238c-.083-.05-.165-.1-.248-.142L57.6,56.675l-.027-.014A4.856,4.856,0,0,0,50.4,60.88v21.4A77.963,77.963,0,0,1,28.13,65.925,38.953,38.953,0,0,1,53.776,40.779L50.865,29.365c-.073,0-.142.009-.216.009a9.741,9.741,0,1,1,4.3-1.01l2.911,11.418A38.805,38.805,0,0,1,80.993,42.5l4.922-9.747a4.858,4.858,0,1,1,3.494,1.488c-.183,0-.358-.014-.537-.032l-4.927,9.761A38.874,38.874,0,0,1,103.992,77.987Z" transform="translate(-26.21 -9.93)"/><path class="e" d="M271.382,454.594a4.861,4.861,0,0,1-2.254,4.105,3.174,3.174,0,0,1-.28.165l-.009,0-12.585,7.268a77.214,77.214,0,0,1-24.123-7.245v-21.4a4.857,4.857,0,0,1,7.171-4.22l.027.014,29.509,17.038c.083.046.165.092.248.142A4.862,4.862,0,0,1,271.382,454.594Z" transform="translate(-207.943 -386.537)"/></g></g></svg>