<svg xmlns="http://www.w3.org/2000/svg" width="50" height="50" viewBox="0 0 50 50"><defs><style>.a{fill:none;}.b{fill:#fff;}</style></defs><g transform="translate(50 -0.214) rotate(90)"><rect class="a" width="50" height="50" transform="translate(0.214)"/><path class="b" d="M20.5,0a2.955,2.955,0,0,1,2.078.833L40.139,18.075a2.848,2.848,0,0,1,0,4.08,2.978,2.978,0,0,1-4.156,0L20.5,6.925,5.017,22.155a2.978,2.978,0,0,1-4.156,0,2.848,2.848,0,0,1,0-4.08L18.422.833A2.955,2.955,0,0,1,20.5,0Z" transform="translate(4.26 13)"/></g></svg>