<?xml version="1.0" encoding="utf-8"?>
<!-- Generator: Adobe Illustrator 23.1.0, SVG Export Plug-In . SVG Version: 6.00 Build 0)  -->
<svg version="1.1" id="Layer_1" xmlns="http://www.w3.org/2000/svg" xmlns:xlink="http://www.w3.org/1999/xlink" x="0px" y="0px"
	 viewBox="0 0 36 36" style="enable-background:new 0 0 36 36;" xml:space="preserve">
<style type="text/css">
	.st0{fill:url(#Oval-2_1_);}
	.st1{fill:#FFFFFF;}
</style>
<g id="icon_-social_-_Instagram" transform="translate(12 8)">
	<g transform="matrix(1, 0, 0, 1, -12, -8)">
		
			<linearGradient id="Oval-2_1_" gradientUnits="userSpaceOnUse" x1="6.0015" y1="30.3889" x2="5.9985" y2="29.3889" gradientTransform="matrix(36 0 0 -36 -198 1094)">
			<stop  offset="0" style="stop-color:#7024C4"/>
			<stop  offset="0.415" style="stop-color:#C21975"/>
			<stop  offset="0.702" style="stop-color:#C74C4D"/>
			<stop  offset="1" style="stop-color:#E09B3D"/>
		</linearGradient>
		<circle id="Oval-2" class="st0" cx="18" cy="18" r="18"/>
	</g>
	<path id="Instagram" class="st1" d="M9.2,17.9H2.8c-2.6,0-4.7-2.1-4.7-4.7V6.9c0-2.6,2.1-4.7,4.7-4.7h6.3c2.6,0,4.7,2.1,4.7,4.7
		v6.3C13.8,15.8,11.7,17.9,9.2,17.9z M2.8,3.8c-1.7,0-3.1,1.4-3.1,3.1v6.3c0,1.7,1.4,3.1,3.1,3.1h6.3c1.7,0,3.1-1.4,3.1-3.1V6.9
		c0-1.7-1.4-3.1-3.1-3.1L2.8,3.8z M6,14.1c-2.2,0-4.1-1.8-4.1-4S3.7,6,6,6s4.1,1.8,4.1,4c0,0,0,0,0,0C10,12.3,8.2,14.1,6,14.1z
		 M6,7.6c-1.4,0-2.5,1.1-2.5,2.5s1.1,2.5,2.5,2.5s2.5-1.1,2.5-2.5c0,0,0,0,0,0C8.5,8.7,7.4,7.6,6,7.6L6,7.6z M10,7c-0.5,0-1-0.4-1-1
		s0.4-1,1-1s1,0.4,1,1c0,0,0,0,0,0C11,6.6,10.6,7,10,7C10,7,10,7,10,7L10,7z"/>
</g>
</svg>
