<?xml version="1.0" encoding="utf-8"?>
<!-- Generator: Adobe Illustrator 23.1.0, SVG Export Plug-In . SVG Version: 6.00 Build 0)  -->
<svg version="1.1" id="Layer_1" xmlns="http://www.w3.org/2000/svg" xmlns:xlink="http://www.w3.org/1999/xlink" x="0px" y="0px"
	 viewBox="0 0 36 36" style="enable-background:new 0 0 36 36;" xml:space="preserve">
<style type="text/css">
	.st0{fill:url(#Oval-2_1_);}
	.st1{fill:#FFFFFF;}
</style>
<g id="icon_-social_-_Youtube" transform="translate(9 6)">
	<g transform="matrix(1, 0, 0, 1, -9, -6)">
		
			<linearGradient id="Oval-2_1_" gradientUnits="userSpaceOnUse" x1="6.0833" y1="30.3333" x2="6.0833" y2="29.3333" gradientTransform="matrix(36 0 0 -36 -201 1092)">
			<stop  offset="0" style="stop-color:#DE2925"/>
			<stop  offset="1" style="stop-color:#C0171D"/>
		</linearGradient>
		<circle id="Oval-2" class="st0" cx="18" cy="18" r="18"/>
	</g>
	<path id="Youtube" class="st1" d="M9,18.7L9,18.7c0,0-4.4,0-5.7-0.2c-0.1,0-0.2,0-0.3,0c-0.6,0-1.2-0.3-1.6-0.8
		c-0.4-0.6-0.6-1.2-0.7-1.8c-0.1-1-0.2-2-0.2-3v-1.4c0-1.5,0.2-3,0.2-3c0.1-0.7,0.3-1.3,0.7-1.8c0.4-0.5,1-0.7,1.6-0.8l0,0h0
		C5.5,5.7,9,5.7,9,5.7s3.5,0,5.9,0.2l0.1,0c0.6,0,1.2,0.3,1.6,0.8c0.4,0.6,0.6,1.2,0.7,1.8c0,0,0.2,1.5,0.2,3v1.4c0,1.5-0.2,3-0.2,3
		c-0.1,0.7-0.3,1.3-0.7,1.8c-0.4,0.5-1,0.7-1.6,0.8l0,0h0C12.5,18.7,9,18.7,9,18.7z M7,9.2v6.4l5.5-3.1L7,9.2z"/>
</g>
</svg>
